<svg width="114" height="314" viewBox="0 0 114 314" fill="none" xmlns="http://www.w3.org/2000/svg">
<mask id="mask0_1_7457" style="mask-type:alpha" maskUnits="userSpaceOnUse" x="0" y="0" width="115" height="314">
<path d="M16.6137 1.24609L98.0211 1.24609C106.508 1.24609 113.389 8.12646 113.389 16.6138L113.389 297.386C113.389 305.873 106.508 312.754 98.0211 312.754H16.6137C8.12634 312.754 1.24597 305.873 1.24597 297.386L1.24597 16.6138C1.24597 8.12645 8.12634 1.24609 16.6137 1.24609Z" fill="#0A090F" stroke="url(#paint0_linear_1_7457)" stroke-width="2.49206"/>
</mask>
<g mask="url(#mask0_1_7457)">
<path d="M43.8224 191.163C46.2447 191.995 47.2588 193.014 47.3868 193.658C47.505 194.232 47.0323 195.459 45.3092 197.053C43.6058 198.112 41.8138 199.161 39.9922 200.22C35.4275 202.79 31.0185 205.629 26.7883 208.723C-6.68919 234.38 -24.4322 268.727 -25.8993 310.805C-26.1651 318.436 -28.5479 320.772 -36.1099 320.792H-38.0791C-46.8621 320.812 -55.9404 320.832 -64.8612 320.772C-68.5141 320.743 -71.212 319.852 -72.6201 318.377C-74.0281 316.902 -74.6878 314.477 -74.5795 311.161C-72.9056 261.689 -55.2414 219.799 -21.9707 186.353C-17.3167 181.674 -12.3606 177.167 -7.10275 172.832C-4.34577 170.555 -2.83929 170.426 0.252464 172.188C14.1438 179.889 28.733 186.242 43.8224 191.163Z" fill="url(#paint1_linear_1_7457)"/>
<path d="M-37.9217 113.995L-35.8835 116.479C-31.8101 121.651 -27.4753 126.611 -22.8962 131.336C11.6053 164.654 53.1075 182.204 100.458 183.521C104.112 183.61 106.612 182.957 108.119 181.482L108.178 181.423C109.675 179.917 110.413 177.354 110.433 173.593L110.442 173.325C110.482 163.585 110.502 153.469 110.442 143.63C110.354 137.602 107.587 134.821 101.492 134.632C62.363 133.603 29.6142 117.984 4.12208 88.2194C-1.96366 80.9387 -7.252 73.0205 -11.6517 64.6018C-13.3944 61.3651 -14.4678 60.8207 -15.8758 60.9296C-17.2838 61.0385 -17.5891 61.7214 -18.7017 65.0374C-23.8427 80.552 -30.3644 95.5694 -38.1876 109.907C-39.2706 111.867 -39.0639 112.589 -37.9217 113.995Z" fill="url(#paint2_linear_1_7457)"/>
<path d="M110.561 220.918C110.548 217.763 110.545 214.606 110.552 211.444C110.6 210.303 110.412 209.164 110 208.099C109.589 207.034 108.962 206.067 108.159 205.258C106.564 203.774 104.397 203.1 101.05 203.16C73.48 203.16 45.9694 215.097 25.6368 235.538C5.25492 256.027 -6.44252 283.624 -6.38344 311.28C-6.39327 318.14 -3.83323 320.713 3.03949 320.752C13.4274 320.842 23.6478 320.822 33.4154 320.723C39.4216 320.623 41.9423 318.248 42.2969 312.131C44.3055 277.328 67.2079 254.324 102.044 252.067C107.903 251.701 110.453 249.178 110.492 243.575C110.581 236.102 110.62 228.44 110.561 220.918Z" fill="url(#paint3_linear_1_7457)"/>
<path d="M-6.41312 7.5683C-5.63525 32.3636 2.22215 54.3182 16.903 72.7787C38.5452 99.9795 67.129 114.203 101.877 115.065C103.036 115.265 104.226 115.188 105.35 114.839C106.475 114.49 107.501 113.879 108.346 113.057C109.191 112.234 109.832 111.223 110.215 110.104C110.598 108.986 110.713 107.793 110.551 106.621C110.699 95.5054 110.699 84.6965 110.541 74.4614C110.453 68.9876 107.883 66.3052 102.645 66.2656C86.6015 66.125 71.2595 59.6384 59.9389 48.2098C48.6185 36.7814 42.2308 21.3307 42.1587 5.20256C42.1587 -0.993818 37.8953 -2.38944 34.3507 -2.42903C27.7647 -2.55221 21.0893 -2.54967 14.4959 -2.54713H14.4919L14.4895 -2.5471L14.4845 -2.54708C12.6044 -2.54635 10.7311 -2.54564 8.86834 -2.54783L1.16855 -2.50823C0.152232 -2.5236 -0.856475 -2.33059 -1.79607 -1.94085C-2.73564 -1.55112 -3.58632 -0.972876 -4.29614 -0.241526C-5.95032 1.52038 -6.5805 3.77721 -6.41312 7.5683Z" fill="url(#paint4_linear_1_7457)"/>
<path d="M105.244 40.6282C97.1994 46.9137 83.7398 45.4387 74.6122 37.233C65.7407 29.2648 62.3535 19.901 64.2637 8.6367L64.3031 8.37935L64.4606 8.04278C68.793 -1.67741 75.9611 -4.31037 81.1994 -4.8251C90.5631 -5.72584 101.227 -0.449961 107.144 8.01313C115.563 20.0396 114.805 33.1352 105.244 40.6282Z" fill="url(#paint5_linear_1_7457)"/>
<path d="M74.6122 280.892C66.6269 288.919 63.0231 297.254 63.7813 305.638C64.1561 310.208 66.1592 314.489 69.4227 317.693C72.686 320.898 76.9902 322.81 81.544 323.079C85.6844 323.177 89.8021 322.426 93.644 320.871C97.486 319.316 100.972 316.989 103.89 314.034C106.807 311.079 109.095 307.557 110.613 303.683C112.131 299.809 112.847 295.665 112.717 291.503C112.425 286.929 110.486 282.619 107.262 279.377C104.038 276.137 99.7504 274.187 95.2008 273.894C91.4726 273.547 87.7146 273.99 84.1676 275.196C80.6211 276.402 77.3658 278.341 74.6122 280.892Z" fill="url(#paint6_linear_1_7457)"/>
</g>
<defs>
<linearGradient id="paint0_linear_1_7457" x1="58.7137" y1="281.156" x2="51.4497" y2="12.4828" gradientUnits="userSpaceOnUse">
<stop stop-color="#D95DB0"/>
<stop offset="1" stop-color="#3344DC"/>
</linearGradient>
<linearGradient id="paint1_linear_1_7457" x1="28.4693" y1="290.835" x2="174.435" y2="62.6433" gradientUnits="userSpaceOnUse">
<stop stop-color="#1ED760" stop-opacity="0.08"/>
<stop offset="1" stop-color="#09A43F"/>
</linearGradient>
<linearGradient id="paint2_linear_1_7457" x1="28.4692" y1="290.834" x2="174.435" y2="62.6423" gradientUnits="userSpaceOnUse">
<stop stop-color="#1ED760" stop-opacity="0.08"/>
<stop offset="1" stop-color="#09A43F"/>
</linearGradient>
<linearGradient id="paint3_linear_1_7457" x1="28.4691" y1="290.835" x2="174.435" y2="62.643" gradientUnits="userSpaceOnUse">
<stop stop-color="#1ED760" stop-opacity="0.08"/>
<stop offset="1" stop-color="#09A43F"/>
</linearGradient>
<linearGradient id="paint4_linear_1_7457" x1="28.4692" y1="290.835" x2="174.435" y2="62.6431" gradientUnits="userSpaceOnUse">
<stop stop-color="#1ED760" stop-opacity="0.08"/>
<stop offset="1" stop-color="#09A43F"/>
</linearGradient>
<linearGradient id="paint5_linear_1_7457" x1="28.4692" y1="290.834" x2="174.435" y2="62.6424" gradientUnits="userSpaceOnUse">
<stop stop-color="#1ED760" stop-opacity="0.08"/>
<stop offset="1" stop-color="#09A43F"/>
</linearGradient>
<linearGradient id="paint6_linear_1_7457" x1="28.4692" y1="290.835" x2="174.435" y2="62.6431" gradientUnits="userSpaceOnUse">
<stop stop-color="#1ED760" stop-opacity="0.08"/>
<stop offset="1" stop-color="#09A43F"/>
</linearGradient>
</defs>
</svg>
